<?xml version="1.0" standalone="no"?>
<!DOCTYPE svg PUBLIC "-//W3C//DTD SVG 20010904//EN"
 "http://www.w3.org/TR/2001/REC-SVG-20010904/DTD/svg10.dtd">
<svg version="1.0" xmlns="http://www.w3.org/2000/svg"
 width="92.000000pt" height="81.000000pt" viewBox="0 0 92.000000 81.000000"
 preserveAspectRatio="xMidYMid meet">

<g transform="translate(0.000000,81.000000) scale(0.100000,-0.100000)"
fill="#000000" stroke="none">
<path d="M502 798 c-7 -7 -12 -40 -12 -79 0 -58 -3 -68 -17 -68 -10 0 -30 -3
-45 -7 -27 -6 -27 -6 -30 52 -3 55 -5 59 -28 59 -24 0 -25 -3 -28 -70 -2 -39
-9 -76 -16 -85 -69 -78 -57 -181 28 -244 20 -16 42 -21 86 -21 66 0 99 18 138
76 30 43 27 120 -6 166 -19 26 -22 45 -22 120 0 81 -8 113 -30 113 -3 0 -11
-5 -18 -12z m36 -122 c2 -84 0 -107 -10 -104 -9 3 -14 36 -16 112 -2 84 0 107
10 104 9 -3 14 -36 16 -112z m-158 22 c0 -68 -10 -128 -21 -128 -10 0 -12 163
-2 173 16 17 23 3 23 -45z m100 -88 c0 -20 -5 -30 -15 -30 -10 0 -15 10 -15
30 0 20 5 30 15 30 10 0 15 -10 15 -30z m-52 -8 c3 -17 -2 -22 -17 -22 -14 0
-21 6 -21 18 0 38 33 41 38 4z m97 -66 c17 -25 13 -47 -17 -85 -10 -13 -18
-40 -18 -62 0 -33 -4 -40 -24 -45 -48 -12 -61 -2 -64 46 -2 26 -11 54 -22 65
-22 25 -40 77 -19 58 7 -7 26 -13 42 -13 19 0 36 -9 49 -26 26 -33 34 -24 13
15 -13 25 -22 31 -50 31 -35 0 -51 12 -40 30 3 6 35 10 70 10 57 0 66 -3 80
-24z"/>
</g>
</svg>
